<svg xmlns="http://www.w3.org/2000/svg" version="1.1" xmlns:xlink="http://www.w3.org/1999/xlink" xmlns:svgjs="http://svgjs.com/svgjs" width="1920" height="1080" preserveAspectRatio="none" viewBox="0 0 1920 1080"><g mask="url(&quot;#SvgjsMask1025&quot;)" fill="none"><rect width="1920" height="1080" x="0" y="0" fill="#0e2a47"></rect><path d="M1520.9667952587322 791.7561877683179L1704.1329684888758 710.2053532680654 1439.4159607584797 608.5900145381743z" fill="rgba(28, 83, 142, 0.4)" class="triangle-float3"></path><path d="M770.3679540042599 787.5337540312944L903.1087243929306 654.7929836426235 637.6271836155892 522.0522132539529z" fill="rgba(28, 83, 142, 0.4)" class="triangle-float2"></path><path d="M1663.752207804981 250.80343295376025L1458.6690641156993 214.64174143282892 1506.968098678943 540.3473027272172z" fill="rgba(28, 83, 142, 0.4)" class="triangle-float1"></path><path d="M542.500107719867 497.018089033509L504.82469887133226 763.251292696001 724.2613299547843 679.0174620537291z" fill="rgba(28, 83, 142, 0.4)" class="triangle-float2"></path><path d="M1787.0766063843776 1034.489432695671L1576.7837575238186 953.5355421452568 1604.1980317138339 1148.5982386780295z" fill="rgba(28, 83, 142, 0.4)" class="triangle-float2"></path><path d="M110.94720271572399 934.6642048693561L286.4343060827147 1012.7960971900446 315.88859288025213 710.4994959792143z" fill="rgba(28, 83, 142, 0.4)" class="triangle-float3"></path><path d="M1622.529403858506 886.8933491546741L1526.7220516886434 649.1096379716429 1385.692336988816 823.2668316414095z" fill="rgba(28, 83, 142, 0.4)" class="triangle-float3"></path><path d="M1081.1005015388444 300.05293924198224L971.7429042028189 131.65700657729363 773.8278038737986 379.8913689136761z" fill="rgba(28, 83, 142, 0.4)" class="triangle-float1"></path><path d="M1519.8010252586175 547.230869467256L1473.088744418772 372.8982640355259 1345.4684198268876 593.9431503071016z" fill="rgba(28, 83, 142, 0.4)" class="triangle-float3"></path><path d="M919.754431095598 342.48398799550637L1008.3346587281202 268.15635165945747 852.5530904077857 172.44982837869867z" fill="rgba(28, 83, 142, 0.4)" class="triangle-float2"></path><path d="M89.35238238663094 237.92135220822158L319.8820933788189 120.46059759310619-28.108372228484455 7.391641216033577z" fill="rgba(28, 83, 142, 0.4)" class="triangle-float1"></path><path d="M55.07307715325395 115.50664020971104L-74.94543768213171 106.4148599736425-23.573850618541655 305.9885223447552z" fill="rgba(28, 83, 142, 0.4)" class="triangle-float1"></path><path d="M1091.3446557971852 123.20205413626452L1053.8678384676791-39.127875971445164 929.0147256894754 160.6788714657705z" fill="rgba(28, 83, 142, 0.4)" class="triangle-float3"></path><path d="M1064.2930408958503 993.8066973168471L1179.8673020785284 822.4608087227115 865.0613385959858 734.7723612457623z" fill="rgba(28, 83, 142, 0.4)" class="triangle-float2"></path><path d="M1053.420244533602 284.613441795124L955.3085867791085 554.173006060855 1322.9798087993331 382.72509954961754z" fill="rgba(28, 83, 142, 0.4)" class="triangle-float3"></path><path d="M1123.7123342523455 1066.327193658803L1256.4631089159607 781.6422386896751 839.0273792832176 933.5764189951879z" fill="rgba(28, 83, 142, 0.4)" class="triangle-float1"></path><path d="M1310.0173561388726 480.8798716663973L1177.96834602831 323.2050620767699 1113.539533558645 491.04785689270204z" fill="rgba(28, 83, 142, 0.4)" class="triangle-float2"></path><path d="M867.308658305279 1012.8444243112376L978.4996472166678 1001.1577804532718 905.3741869740246 840.2146190151716z" fill="rgba(28, 83, 142, 0.4)" class="triangle-float3"></path><path d="M422.87675790728485 718.9643994097094L697.3457684278588 871.1050562845485 575.017414782124 444.49538888913537z" fill="rgba(28, 83, 142, 0.4)" class="triangle-float3"></path><path d="M861.7379113473722 111.00304321784584L838.3954252276418 277.09346219934974 1027.828330328876 134.34552933757632z" fill="rgba(28, 83, 142, 0.4)" class="triangle-float2"></path></g><defs><mask id="SvgjsMask1025"><rect width="1920" height="1080" fill="#ffffff"></rect></mask><style>
            @keyframes float1 {
                0%{transform: translate(0, 0)}
                50%{transform: translate(-10px, 0)}
                100%{transform: translate(0, 0)}
            }

            .triangle-float1 {
                animation: float1 5s infinite;
            }

            @keyframes float2 {
                0%{transform: translate(0, 0)}
                50%{transform: translate(-5px, -5px)}
                100%{transform: translate(0, 0)}
            }

            .triangle-float2 {
                animation: float2 4s infinite;
            }

            @keyframes float3 {
                0%{transform: translate(0, 0)}
                50%{transform: translate(0, -10px)}
                100%{transform: translate(0, 0)}
            }

            .triangle-float3 {
                animation: float3 6s infinite;
            }
        </style></defs></svg>