<svg xmlns="http://www.w3.org/2000/svg" version="1.1" xmlns:xlink="http://www.w3.org/1999/xlink" xmlns:svgjs="http://svgjs.com/svgjs" width="1920" height="1080" preserveAspectRatio="none" viewBox="0 0 1920 1080"><g mask="url(&quot;#SvgjsMask1033&quot;)" fill="none"><rect width="1920" height="1080" x="0" y="0" fill="#0e2a47"></rect><path d="M1885 383L1884 730" stroke-width="8" stroke="url(#SvgjsLinearGradient1034)" stroke-linecap="round" class="Up"></path><path d="M738 529L737 1281" stroke-width="6" stroke="url(#SvgjsLinearGradient1035)" stroke-linecap="round" class="Down"></path><path d="M1329 493L1328 1125" stroke-width="10" stroke="url(#SvgjsLinearGradient1035)" stroke-linecap="round" class="Down"></path><path d="M1755 805L1754 1328" stroke-width="10" stroke="url(#SvgjsLinearGradient1035)" stroke-linecap="round" class="Down"></path><path d="M697 805L696 484" stroke-width="6" stroke="url(#SvgjsLinearGradient1034)" stroke-linecap="round" class="Up"></path><path d="M149 356L148 1022" stroke-width="8" stroke="url(#SvgjsLinearGradient1035)" stroke-linecap="round" class="Down"></path><path d="M1815 434L1814 899" stroke-width="10" stroke="url(#SvgjsLinearGradient1034)" stroke-linecap="round" class="Up"></path><path d="M818 672L817 1358" stroke-width="6" stroke="url(#SvgjsLinearGradient1035)" stroke-linecap="round" class="Down"></path><path d="M608 514L607 1173" stroke-width="10" stroke="url(#SvgjsLinearGradient1035)" stroke-linecap="round" class="Down"></path><path d="M1684 1069L1683 1563" stroke-width="8" stroke="url(#SvgjsLinearGradient1035)" stroke-linecap="round" class="Down"></path><path d="M1795 198L1794 -517" stroke-width="6" stroke="url(#SvgjsLinearGradient1034)" stroke-linecap="round" class="Up"></path><path d="M1164 873L1163 1643" stroke-width="8" stroke="url(#SvgjsLinearGradient1035)" stroke-linecap="round" class="Down"></path><path d="M984 679L983 405" stroke-width="6" stroke="url(#SvgjsLinearGradient1034)" stroke-linecap="round" class="Up"></path><path d="M812 611L811 1399" stroke-width="8" stroke="url(#SvgjsLinearGradient1035)" stroke-linecap="round" class="Down"></path><path d="M1081 238L1080 -282" stroke-width="6" stroke="url(#SvgjsLinearGradient1034)" stroke-linecap="round" class="Up"></path><path d="M1869 609L1868 891" stroke-width="6" stroke="url(#SvgjsLinearGradient1035)" stroke-linecap="round" class="Down"></path><path d="M538 32L537 405" stroke-width="10" stroke="url(#SvgjsLinearGradient1035)" stroke-linecap="round" class="Down"></path><path d="M148 702L147 1204" stroke-width="6" stroke="url(#SvgjsLinearGradient1035)" stroke-linecap="round" class="Down"></path><path d="M1214 82L1213 354" stroke-width="10" stroke="url(#SvgjsLinearGradient1035)" stroke-linecap="round" class="Down"></path><path d="M628 746L627 161" stroke-width="6" stroke="url(#SvgjsLinearGradient1035)" stroke-linecap="round" class="Down"></path><path d="M406 97L405 -583" stroke-width="8" stroke="url(#SvgjsLinearGradient1035)" stroke-linecap="round" class="Down"></path><path d="M1507 462L1506 133" stroke-width="6" stroke="url(#SvgjsLinearGradient1034)" stroke-linecap="round" class="Up"></path><path d="M1708 589L1707 1187" stroke-width="6" stroke="url(#SvgjsLinearGradient1035)" stroke-linecap="round" class="Down"></path><path d="M464 121L463 -483" stroke-width="6" stroke="url(#SvgjsLinearGradient1034)" stroke-linecap="round" class="Up"></path><path d="M1471 1024L1470 1588" stroke-width="10" stroke="url(#SvgjsLinearGradient1034)" stroke-linecap="round" class="Up"></path><path d="M484 730L483 1189" stroke-width="8" stroke="url(#SvgjsLinearGradient1035)" stroke-linecap="round" class="Down"></path><path d="M1884 495L1883 60" stroke-width="8" stroke="url(#SvgjsLinearGradient1035)" stroke-linecap="round" class="Down"></path><path d="M1042 990L1041 1766" stroke-width="6" stroke="url(#SvgjsLinearGradient1034)" stroke-linecap="round" class="Up"></path><path d="M680 872L679 398" stroke-width="8" stroke="url(#SvgjsLinearGradient1034)" stroke-linecap="round" class="Up"></path><path d="M1183 456L1182 -98" stroke-width="8" stroke="url(#SvgjsLinearGradient1035)" stroke-linecap="round" class="Down"></path><path d="M181 116L180 -463" stroke-width="8" stroke="url(#SvgjsLinearGradient1035)" stroke-linecap="round" class="Down"></path><path d="M1513 387L1512 -89" stroke-width="10" stroke="url(#SvgjsLinearGradient1034)" stroke-linecap="round" class="Up"></path><path d="M912 202L911 -235" stroke-width="6" stroke="url(#SvgjsLinearGradient1035)" stroke-linecap="round" class="Down"></path><path d="M1598 995L1597 716" stroke-width="6" stroke="url(#SvgjsLinearGradient1034)" stroke-linecap="round" class="Up"></path><path d="M1664 272L1663 572" stroke-width="10" stroke="url(#SvgjsLinearGradient1035)" stroke-linecap="round" class="Down"></path><path d="M1850 773L1849 1281" stroke-width="6" stroke="url(#SvgjsLinearGradient1035)" stroke-linecap="round" class="Down"></path><path d="M1533 303L1532 618" stroke-width="6" stroke="url(#SvgjsLinearGradient1035)" stroke-linecap="round" class="Down"></path><path d="M578 538L577 1000" stroke-width="6" stroke="url(#SvgjsLinearGradient1035)" stroke-linecap="round" class="Down"></path><path d="M1067 539L1066 1062" stroke-width="6" stroke="url(#SvgjsLinearGradient1035)" stroke-linecap="round" class="Down"></path><path d="M178 335L177 1048" stroke-width="10" stroke="url(#SvgjsLinearGradient1034)" stroke-linecap="round" class="Up"></path><path d="M1627 759L1626 1030" stroke-width="10" stroke="url(#SvgjsLinearGradient1035)" stroke-linecap="round" class="Down"></path><path d="M698 402L697 1010" stroke-width="8" stroke="url(#SvgjsLinearGradient1035)" stroke-linecap="round" class="Down"></path><path d="M343 239L342 518" stroke-width="6" stroke="url(#SvgjsLinearGradient1035)" stroke-linecap="round" class="Down"></path><path d="M1394 417L1393 867" stroke-width="10" stroke="url(#SvgjsLinearGradient1035)" stroke-linecap="round" class="Down"></path><path d="M984 196L983 -242" stroke-width="6" stroke="url(#SvgjsLinearGradient1034)" stroke-linecap="round" class="Up"></path><path d="M1731 112L1730 -688" stroke-width="6" stroke="url(#SvgjsLinearGradient1035)" stroke-linecap="round" class="Down"></path><path d="M439 494L438 150" stroke-width="10" stroke="url(#SvgjsLinearGradient1035)" stroke-linecap="round" class="Down"></path><path d="M1661 663L1660 1170" stroke-width="8" stroke="url(#SvgjsLinearGradient1034)" stroke-linecap="round" class="Up"></path></g><defs><mask id="SvgjsMask1033"><rect width="1920" height="1080" fill="#ffffff"></rect></mask><linearGradient x1="0%" y1="100%" x2="0%" y2="0%" id="SvgjsLinearGradient1034"><stop stop-color="rgba(28, 83, 142, 0)" offset="0"></stop><stop stop-color="#1c538e" offset="1"></stop></linearGradient><linearGradient x1="0%" y1="0%" x2="0%" y2="100%" id="SvgjsLinearGradient1035"><stop stop-color="rgba(28, 83, 142, 0)" offset="0"></stop><stop stop-color="#1c538e" offset="1"></stop></linearGradient></defs></svg>