{"accessors" : [{"bufferView" : 0, "byteOffset" : 0, "componentType" : 5123, "count" : 9216, "type" : "SCALAR", "max" : [2033], "min" : [0]}, {"bufferView" : 1, "byteOffset" : 0, "componentType" : 5126, "count" : 2034, "type" : "VEC3", "max" : [500.0000305175781, 497.0555725097656, 500.0000305175781], "min" : [-500.0000305175781, -497.0555725097656, -500.0000305175781]}, {"bufferView" : 1, "byteOffset" : 12, "componentType" : 5126, "count" : 2034, "type" : "VEC3", "max" : [1.0000044107437134, 1.0000044107437134, 1.0000044107437134], "min" : [-1.0000044107437134, -1.0000044107437134, -1.0000044107437134]}, {"bufferView" : 1, "byteOffset" : 24, "componentType" : 5126, "count" : 2034, "type" : "VEC2", "max" : [1, 0.999085009098053], "min" : [0.00017100000695791095, 0.002392888069152832]}], "asset" : {"generator" : "Aspose.3D 21.1", "version" : "2.0"}, "buffers" : [{"uri" : "buffer.bin", "byteLength" : 4260524}], "bufferViews" : [{"buffer" : 0, "byteOffset" : 0, "byteLength" : 18432, "target" : 34963}, {"buffer" : 0, "byteOffset" : 18436, "byteLength" : 294912, "byteStride" : 32, "target" : 34962}, {"buffer" : 0, "byteOffset" : 313352, "byteLength" : 507991}, {"buffer" : 0, "byteOffset" : 821344, "byteLength" : 3439176}], "images" : [{"mimeType" : "image/png", "bufferView" : 2}, {"mimeType" : "image/png", "bufferView" : 3}], "materials" : [{"pbrMetallicRoughness" : {"baseColorFactor" : [1, 1, 1, 1], "baseColorTexture" : {"index" : 1, "texCoord" : 0}, "metallicFactor" : 0, "roughnessFactor" : 0.8999999761581421}, "normalTexture" : {"index" : 0, "texCoord" : 0, "scale" : 1}, "emissiveFactor" : [0, 0, 0], "alphaMode" : "OPAQUE", "doubleSided" : false}], "meshes" : [{"primitives" : [{"attributes" : {"POSITION" : 1, "NORMAL" : 2, "TEXCOORD_0" : 3}, "indices" : 0, "material" : 0, "mode" : 4}]}], "nodes" : [{"mesh" : 0, "name" : "Cube.008"}], "samplers" : [{"magFilter" : 9729, "minFilter" : 9729, "wrapS" : 10497, "wrapT" : 10497}, {"magFilter" : 9729, "minFilter" : 9729, "wrapS" : 10497, "wrapT" : 10497}], "scene" : 0, "scenes" : [{"nodes" : [0]}], "textures" : [{"sampler" : 0, "source" : 0}, {"sampler" : 1, "source" : 1}]}